<svg width="32" height="32" viewBox="0 0 32 32" fill="none" xmlns="http://www.w3.org/2000/svg">
    <rect width="32" height="32" fill="white"/>
    <path fill-rule="evenodd" clip-rule="evenodd" d="M29.3225 28.5354L21.4046 11.6213C21.3442 11.6398 21.2887 11.6583 21.2375 11.6724C21.145 11.7001 21.0705 11.7234 21.0106 11.756L20.0234 12.2192C19.9957 12.2333 19.963 12.2426 19.9309 12.2518L19.8705 12.2659C19.6714 12.3121 19.6109 12.3219 19.5043 12.3816C19.4254 12.5391 19.3563 12.7009 19.2866 12.8584C19.2034 13.0436 19.1244 13.2287 19.0412 13.3998C21.3899 18.3985 22.1229 20.0075 25.5529 27.2066L23.9818 27.2077C23.6994 27.527 23.2314 27.8463 22.7123 27.9299C22.5316 27.9533 22.2165 28.1336 22.0543 28.2726C22.0358 28.291 22.0124 28.3052 21.9939 28.3187C21.7714 28.4529 21.5956 28.5132 21.4285 28.5132C20.8631 28.5137 20.7886 27.9354 20.751 27.6579C20.7325 27.5145 20.7091 27.3619 20.6672 27.2093L11.3322 27.2153C11.3137 27.2522 11.2952 27.2891 11.2767 27.3217C11.2675 27.4189 11.249 27.4884 11.2354 27.5482C11.2212 27.5992 11.2076 27.6546 11.2033 27.7426C11.1989 27.9044 11.1015 28.0478 10.9627 28.1265C10.9165 28.1499 10.7821 28.2145 10.7821 28.2145C10.7173 28.2471 10.6433 28.2655 10.5736 28.2655C10.4996 28.2655 10.43 28.2471 10.3652 28.215L9.09945 27.5726C8.96014 27.5031 8.86763 27.3646 8.85348 27.2169L6.54994 27.2185L13.4056 12.7139C13.3686 12.6167 13.3267 12.5103 13.2848 12.3854C13.2293 12.3528 13.1177 12.3066 13.0296 12.2697C12.8766 12.2051 12.6867 12.1264 12.4827 12.0112C12.3852 11.9466 12.3112 11.9048 12.2367 11.8635C12.1719 11.8217 12.1066 11.7848 12.0468 11.7435C11.8661 11.6838 11.7083 11.6094 11.5554 11.5404C11.4117 11.4758 11.2816 11.4155 11.1429 11.3694C11.0874 11.365 11.027 11.3558 10.9666 11.3509C10.9154 11.3466 10.8648 11.3417 10.818 11.3324L2 30L5.23519 29.9984L5.24444 29.9799L26.8666 29.9663L26.8758 29.9848L30 29.9826L29.3225 28.5354ZM16.4291 1L15.6966 1.00054L11.6092 9.65227C11.6326 9.6615 11.6462 9.66639 11.6462 9.66639C11.6974 9.6615 11.748 9.65715 11.8084 9.65715C12.0495 9.65715 12.3134 9.71254 12.629 9.8369C12.8005 9.89663 12.9534 9.98461 13.0834 10.0541C13.1346 10.0818 13.1808 10.1095 13.2227 10.128C13.232 10.128 13.2461 10.128 13.2598 10.1231C13.3708 10.109 13.5193 10.0954 13.6771 10.0948C13.8257 10.0948 13.9601 10.1084 14.0804 10.1361C14.2981 10.1682 14.4466 10.242 14.5484 10.2979L14.8031 9.76142C14.7334 9.64575 14.7193 9.53931 14.7334 9.42853C14.6686 9.34545 14.6311 9.24824 14.6311 9.14181V9.00768C14.4967 8.82739 14.353 8.54555 14.6676 8.22135C14.6676 8.22135 14.6676 8.21701 14.6725 8.21701C14.6861 8.00414 14.7557 7.89336 14.8901 7.7728C15.0289 7.41657 15.2792 7.32371 15.5296 7.30524C15.6591 7.17546 15.8027 7.14776 15.9649 7.1293L16.0574 7.11084L16.0667 7.08749C16.0716 7.09237 16.0716 7.10106 16.0759 7.10595L16.1222 7.09672C16.1548 7.08749 16.1826 7.08749 16.2147 7.08749C16.3213 7.08749 16.4231 7.11952 16.5069 7.18903C16.5118 7.18903 16.5118 7.19392 16.5118 7.19392L16.5858 7.20315C16.6228 7.20315 16.7436 7.19827 16.7714 7.19827C17.0217 7.19827 17.1703 7.30416 17.3139 7.43829L17.3694 7.47087C17.5969 7.60012 17.7079 7.74837 17.7221 7.95146C17.7961 8.03944 17.838 8.13175 17.8472 8.23819C17.9588 8.33539 18.0143 8.47876 18.0007 8.62646L17.9963 8.68674C17.992 8.77471 17.9827 8.84857 17.9593 8.93654C18.0105 9.05221 18.0339 9.19557 17.992 9.30635L17.918 9.53768C17.9038 9.58384 17.881 9.62566 17.8532 9.66258C17.844 9.6767 17.8347 9.69517 17.8255 9.70874C17.8162 9.75056 17.8119 9.7826 17.8026 9.81952C17.789 9.89338 17.7564 9.95854 17.7101 10.0139L17.5849 10.1758C17.5708 10.1893 17.5615 10.2035 17.5523 10.2127L17.5474 10.217C17.5844 10.305 17.6263 10.3973 17.6682 10.4804C17.6775 10.4853 17.6867 10.4853 17.6916 10.4847C17.715 10.4799 17.7379 10.4706 17.7613 10.4706C17.8445 10.4522 17.9098 10.4522 17.9653 10.4522C18.0072 10.4522 18.0393 10.4522 18.072 10.4565C18.0905 10.4429 18.1139 10.4288 18.1416 10.4104C18.4518 10.2111 18.7767 10.1187 19.1609 10.1182C19.3416 10.1182 19.5179 10.1367 19.7078 10.1644C19.7775 10.1551 19.907 10.09 20.0044 10.0438C20.0648 10.0161 20.1247 9.98841 20.1851 9.96017C20.3238 9.89555 20.4539 9.85373 20.5649 9.83038L16.4291 1Z" fill="#566D92"/>
    <path fill-rule="evenodd" clip-rule="evenodd" d="M18.0589 16.5744C18.1019 16.8144 18.2015 17.0403 18.281 17.2711C18.5971 17.9049 18.7745 18.7281 19.0804 19.3417C19.254 19.8533 20.0055 21.5443 19.9826 22.3746C20.0403 22.632 20.1834 22.9508 20.2411 23.2082C20.8631 23.9875 20.7989 24.2144 21.2239 25.1463C21.3328 25.5395 21.5031 25.9734 21.6968 26.3866C22.1659 26.8645 22.4679 26.7895 23.195 26.789C23.331 26.6532 23.5585 26.6636 23.7283 26.7885C23.5313 27.06 23.097 27.3956 22.6383 27.4705C22.3292 27.5151 21.9286 27.7692 21.7518 27.9218C20.9371 28.417 21.4726 27.3695 20.8408 26.5159C20.3581 25.7094 20.1165 25.6454 19.7051 25.042C19.4129 24.6967 19.1375 24.5783 19.0825 23.5916C18.9128 23.2495 18.7424 22.9073 18.5688 22.5647C18.0829 21.748 17.5762 21.6432 17.093 20.1118C16.8416 19.749 16.6337 19.2782 16.3823 18.9122C16.3518 18.9057 16.2903 18.8715 16.2599 18.8818L16.2223 18.9801C16.2054 18.9833 16.1886 18.9833 16.1712 18.9801C15.9197 19.2788 15.7162 19.4042 15.4648 19.7061C14.8232 20.5267 14.8069 21.4694 13.5846 22.2258C13.3468 22.5071 13.1128 22.7852 12.8788 23.0637C12.6786 23.4743 12.6758 23.9961 12.3869 24.2573C12.2106 24.4843 11.9221 24.7559 11.7453 24.9834C11.4873 25.4037 11.2327 25.8246 10.9753 26.2449C10.9823 26.4518 10.9889 26.6549 10.9959 26.8618C10.972 26.8618 10.8773 27.123 10.8262 27.1637C10.8126 27.4146 10.7549 27.4689 10.7418 27.7165C10.6841 27.7469 10.6264 27.7741 10.572 27.8012C10.1508 27.5878 9.72962 27.3744 9.30788 27.1615C9.35196 27.0296 9.43685 27.1072 9.47767 26.9715C9.60011 27.0155 9.67793 26.8428 9.80037 26.8868C9.98376 26.6869 10.1704 26.4865 10.3571 26.2867C10.4044 26.1678 10.5029 25.653 10.5503 25.534C10.6683 24.524 10.8447 23.9815 11.0585 23.5747C11.3671 23.1544 11.6729 22.7374 11.9782 22.3165C12.087 22.1943 12.1921 22.0722 12.3009 21.9538C12.4059 21.8044 12.5148 21.6518 12.6198 21.5025C12.6911 21.3162 12.7624 21.1327 12.8337 20.9464C13.0432 19.5362 13.257 19.3939 13.8747 18.2644C14.0407 17.9288 14.2072 17.5893 14.3732 17.2538C14.3759 17.244 14.3791 17.2337 14.3819 17.2239C14.3895 17.1973 14.3977 17.1707 14.4053 17.1441C14.4167 17.1055 14.4276 17.0669 14.439 17.0284C14.4526 16.9828 14.4657 16.9372 14.4793 16.891C14.4934 16.8427 14.5076 16.7949 14.5212 16.7466C14.5348 16.7009 14.5478 16.6548 14.5615 16.6092C14.5729 16.5706 14.5838 16.532 14.5952 16.4929C14.6028 16.468 14.6115 16.4424 14.6175 16.4169C14.6235 16.3914 14.6311 16.3664 14.6365 16.3409C14.6404 16.3224 14.642 16.3034 14.6409 16.2844C14.6409 16.2888 14.6409 16.2931 14.6414 16.2969C14.6414 16.2584 14.6333 16.2193 14.63 16.1807C14.6268 16.1449 14.6246 16.109 14.624 16.0732C14.6224 16.0053 14.6262 15.9369 14.6349 15.8695C14.6447 15.7973 14.6605 15.7256 14.6801 15.6556C14.7029 15.5725 14.7307 15.4905 14.7595 15.409C14.7595 15.3379 14.6741 14.8769 14.6741 14.8025C14.5887 14.3045 14.5517 14.3078 14.2556 13.5823C14.0445 13.0332 13.922 12.7862 13.7147 12.2165C13.6499 11.9385 13.2287 11.8983 12.7058 11.6072C12.5632 11.5122 12.3896 11.4177 12.247 11.3227C11.8868 11.2108 11.6049 11.0283 11.2446 10.9165C11.1086 10.8964 10.9219 10.8828 10.7859 10.8627C10.7211 10.8084 10.6907 10.7747 10.6259 10.7204C9.86132 10.3647 9.04939 9.95854 8.31529 9.54203C8.24726 9.50836 8.17924 9.47795 8.10795 9.447C8.03993 9.44048 7.9719 9.43668 7.90442 9.43016C7.70743 9.42365 7.59206 9.38943 7.41194 9.24064C7.35752 9.17602 7.13658 9.00333 7.08542 8.93925C6.82041 8.87137 6.69796 8.86486 6.43295 8.79752C6.45308 8.76711 6.45308 8.70249 6.47376 8.67208C6.64355 8.67534 6.88462 8.6585 7.05114 8.66176C6.82694 8.56347 6.57552 8.56727 6.34805 8.46572C6.35839 8.41848 6.36819 8.37069 6.37853 8.32344C6.54831 8.38752 6.93196 8.36363 7.09849 8.42445C6.9423 8.31584 6.56845 8.29249 6.40846 8.18062C6.42859 8.12632 6.45254 8.07528 6.47322 8.02151C6.77905 8.09591 7.08815 8.17031 7.39398 8.2447C7.32596 8.1904 7.33629 8.11274 7.26827 8.0617C7.18664 8.02803 6.93196 7.98079 6.8536 7.94983C6.67348 7.77389 6.80952 7.75325 6.9657 7.76683C7.12515 7.8005 7.28188 7.83091 7.44132 7.86132C7.61492 8.02043 7.79123 8.17954 7.96483 8.33919C8.29461 8.52546 8.34576 8.64058 8.56996 8.92513C8.81485 9.02342 9.05592 9.12497 9.30026 9.22272C9.73833 9.30743 10.1699 9.39161 10.5133 9.51705C10.8904 9.6729 11.0504 9.83527 11.2675 10.015C11.3763 10.0557 11.4814 10.0997 11.5869 10.1405C11.7839 10.1062 12.0081 10.0927 12.4598 10.2686C12.7586 10.3734 12.9969 10.5667 13.1596 10.5934C13.214 10.6172 13.6554 10.4983 13.9852 10.5928C14.2605 10.6265 14.3454 10.7383 14.5087 10.7959C14.5223 10.7959 14.5087 10.8366 14.5223 10.8366C14.556 10.8263 14.587 10.816 14.6208 10.8062C15.2493 10.9143 15.1508 10.8768 15.6193 10.7107C15.7347 10.4701 15.7516 10.2664 15.6972 10.0905C15.4218 9.94171 15.3337 9.99221 15.381 9.71091C15.1704 9.50076 15.1535 9.5719 15.2379 9.30092C15.19 9.24661 15.1426 9.19611 15.0953 9.14181V8.95174C15.0986 8.92133 15.1056 8.88712 15.1089 8.85671C14.8504 8.55206 14.9217 8.67045 15.1258 8.39567C15.1426 8.15836 15.0986 8.19203 15.2852 8.04649C15.3663 7.7413 15.4583 7.7614 15.7434 7.7614C15.886 7.62238 15.8011 7.61206 16.015 7.58817L16.2152 7.54744V7.61858L16.5548 7.66582C16.8438 7.66582 16.8302 7.61152 17.0304 7.8081C17.2617 7.95363 17.2987 7.91616 17.2378 8.1399C17.4211 8.28869 17.4043 8.23113 17.3466 8.45866C17.4114 8.49939 17.4756 8.54338 17.5403 8.5841C17.5267 8.72964 17.5338 8.76711 17.4761 8.90287C17.4897 9.04515 17.4761 9.03863 17.5545 9.15701C17.5273 9.23521 17.5039 9.31287 17.4767 9.39432C17.4429 9.44157 17.4124 9.48935 17.3814 9.5366C17.3711 9.59742 17.3613 9.66204 17.3477 9.72666C17.3069 9.77771 17.2661 9.83201 17.222 9.88577C17.0419 10.0655 17.0419 9.89609 16.9673 10.1399C16.9673 10.2789 16.9368 10.5673 17.0424 10.6922C17.0495 10.8176 17.7085 11.024 17.8375 10.9257C18.1569 10.8714 18.0208 11.0305 18.3844 10.8068C18.8224 10.5249 19.1925 10.5624 19.6817 10.6265C19.9092 10.633 20.1502 10.4804 20.3641 10.3886C20.8495 10.1644 21.0775 10.2833 21.2065 10.198C21.4236 10.0487 21.6413 9.90261 21.8584 9.75381C22.4184 9.41441 22.9316 9.37369 23.5737 9.23087C23.8828 9.08805 24.1952 8.94577 24.5075 8.80295C24.5652 8.6976 24.6262 8.58954 24.6839 8.48419C25.0572 8.32127 25.4343 8.15836 25.8114 7.99219C25.8588 7.97155 25.9709 7.98187 26.0187 7.96178C26.1004 7.97861 26.1205 7.96178 26.2054 7.97861C26.2598 8.01934 26.3142 8.06333 26.3648 8.10406C26.324 8.16162 26.28 8.21918 26.2391 8.28055C26.2391 8.32779 26.3447 8.38535 26.3447 8.43314C26.1646 8.5689 25.8794 8.6976 25.6993 8.83336C25.8691 8.81272 26.0389 8.79263 26.2054 8.76874C26.2157 8.82304 26.2293 8.87735 26.2397 8.92785C26.0394 8.96532 25.8354 9.00279 25.6351 9.04026C25.2416 9.5556 25.4011 9.51813 24.7622 9.49859C24.4123 9.69191 24.0629 9.88197 23.7163 10.072C23.4072 10.2724 23.1019 10.4723 22.7961 10.6726C22.3651 10.9306 21.8623 10.9512 21.4307 11.1038C21.2136 11.226 20.9959 11.2331 20.7788 11.3552C20.4593 11.5046 20.1437 11.6539 19.8281 11.8C19.4988 11.8749 19.4341 11.8814 19.1457 12.0547C18.8845 12.5836 18.6777 13.1565 18.4197 13.5768C18.2434 14.1769 18.2472 14.387 17.9316 14.923C17.9621 15.1875 17.8739 15.2923 17.9691 15.5128C18.078 15.8587 18.109 16.0754 18.0818 16.2823C18.0785 16.2958 18.0785 16.3127 18.0715 16.3262C18.0671 16.3621 18.0666 16.4294 18.0442 16.4587C18.0116 16.5022 18.0475 16.5114 18.0589 16.5744Z" fill="#957647"/>
</svg>
