<svg width="36" height="36" viewBox="0 0 36 36" fill="none" xmlns="http://www.w3.org/2000/svg">
<path d="M27.75 28.5H9.75C8.50736 28.5 7.5 27.4926 7.5 26.25V12.6521C7.55243 11.4479 8.5446 10.4989 9.75 10.5H27.75C28.9926 10.5 30 11.5074 30 12.75V26.25C30 27.4926 28.9926 28.5 27.75 28.5ZM9.75 14.8515V26.25H27.75V14.8515L18.75 20.85L9.75 14.8515ZM10.65 12.75L18.75 18.15L26.85 12.75H10.65Z" fill="black"/>
<path fill-rule="evenodd" clip-rule="evenodd" d="M36 18.75C36 28.2769 28.2769 36 18.75 36C9.22309 36 1.5 28.2769 1.5 18.75C1.5 9.22309 9.22309 1.5 18.75 1.5C28.2769 1.5 36 9.22309 36 18.75ZM34.5 18.75C34.5 27.4485 27.4485 34.5 18.75 34.5C10.0515 34.5 3 27.4485 3 18.75C3 10.0515 10.0515 3 18.75 3C27.4485 3 34.5 10.0515 34.5 18.75Z" fill="black"/>
</svg>
